<svg width="246" height="106" viewBox="0 0 246 106" fill="none" xmlns="http://www.w3.org/2000/svg">
<rect x="183.549" y="72.4604" width="7.91367" height="35.3477" transform="rotate(-21.54 183.549 72.4604)" fill="#B7A835"/>
<rect x="0.361572" y="0.660583" width="220" height="73.3333" rx="36.6667" fill="#B7A835"/>
<rect x="32.4512" y="65.3343" width="7.91367" height="35.3477" transform="rotate(21.5418 32.4512 65.3343)" fill="#B7A835"/>
<path d="M234.102 89.5074C233.957 89.5786 233.806 89.6372 233.652 89.6824C233.488 89.729 233.321 89.7591 233.152 89.7724C232.985 89.7877 232.818 89.7877 232.652 89.7724C232.483 89.7599 232.316 89.7348 232.152 89.6974C231.98 89.6523 231.813 89.592 231.652 89.5174C231.49 89.4441 231.336 89.3553 231.192 89.2524C231.052 89.1481 230.922 89.0328 230.802 88.9074C230.678 88.7741 230.569 88.6283 230.477 88.4724L225.937 81.0324L222.092 85.5324C221.919 85.7385 221.735 85.9354 221.542 86.1224C221.347 86.3074 221.152 86.4774 220.952 86.6224L220.912 86.6524C220.72 86.8009 220.519 86.9378 220.312 87.0624C220.113 87.1821 219.905 87.2874 219.692 87.3774C219.53 87.4518 219.363 87.5137 219.192 87.5624C219.028 87.6127 218.861 87.6495 218.692 87.6724C218.516 87.6965 218.339 87.7082 218.162 87.7074C217.994 87.7007 217.827 87.6824 217.662 87.6524C217.459 87.6139 217.262 87.5553 217.072 87.4774C216.885 87.4023 216.707 87.3068 216.542 87.1924C216.376 87.0776 216.222 86.947 216.082 86.8024C215.942 86.6467 215.817 86.4794 215.707 86.3024L215.652 86.2024L215.607 86.0974L214.962 84.3524V84.2674L211.557 49.9824C211.524 49.7619 211.524 49.5378 211.557 49.3174C211.596 49.0992 211.668 48.8884 211.772 48.6924C211.936 48.3811 212.175 48.115 212.467 47.9174C212.606 47.8211 212.757 47.7438 212.917 47.6874C213.078 47.6273 213.246 47.587 213.417 47.5674C213.632 47.5433 213.849 47.5517 214.062 47.5924C214.279 47.6356 214.49 47.7097 214.687 47.8124L214.837 47.8924C221.592 52.3124 227.887 56.4224 234.157 60.5174L243.657 66.7124C243.829 66.8235 243.996 66.9437 244.157 67.0724C244.301 67.1854 244.438 67.3073 244.567 67.4374L244.597 67.4724C244.725 67.6002 244.843 67.7372 244.952 67.8824C245.059 68.0187 245.154 68.1643 245.237 68.3174C245.34 68.4986 245.425 68.6895 245.492 68.8874C245.556 69.0772 245.599 69.2733 245.622 69.4724C245.644 69.6734 245.644 69.8763 245.622 70.0774C245.602 70.2788 245.563 70.478 245.507 70.6724C245.402 71.009 245.243 71.3264 245.037 71.6124C244.937 71.7598 244.825 71.8986 244.702 72.0274C244.575 72.1641 244.438 72.2912 244.292 72.4074C244.108 72.5588 243.914 72.6975 243.712 72.8224C243.495 72.952 243.271 73.0689 243.042 73.1724C242.807 73.2774 242.542 73.3774 242.312 73.4624C242.057 73.5486 241.799 73.6203 241.537 73.6774C240.152 73.9474 238.772 74.2824 237.402 74.6124L235.777 74.9974L240.277 82.4674C240.369 82.6264 240.446 82.7938 240.507 82.9674C240.688 83.4835 240.714 84.0416 240.582 84.5724V84.6224C240.541 84.7837 240.486 84.941 240.417 85.0924C240.344 85.2473 240.258 85.3961 240.162 85.5374C240.061 85.6828 239.947 85.8184 239.822 85.9424C239.695 86.0659 239.558 86.178 239.412 86.2774L238.412 86.9224C237.028 87.8703 235.589 88.7336 234.102 89.5074ZM209.917 38.0824C210.156 38.5395 210.209 39.0712 210.065 39.5667C209.921 40.0621 209.592 40.4828 209.145 40.741C208.699 40.9991 208.17 41.0747 207.669 40.952C207.167 40.8293 206.733 40.5177 206.457 40.0824L202.457 33.0824C202.23 32.627 202.185 32.1023 202.332 31.6151C202.478 31.128 202.805 30.7149 203.245 30.4601C203.685 30.2052 204.206 30.1277 204.701 30.2433C205.197 30.3589 205.63 30.659 205.912 31.0824L209.942 38.0824H209.917ZM202.417 61.4674C202.872 61.2406 203.397 61.196 203.884 61.3424C204.371 61.4889 204.784 61.8155 205.039 62.2558C205.294 62.696 205.371 63.2169 205.256 63.7123C205.14 64.2077 204.84 64.6404 204.417 64.9224L197.417 68.9524C196.961 69.1791 196.436 69.2238 195.949 69.0773C195.462 68.9309 195.049 68.6043 194.794 68.164C194.539 67.7237 194.462 67.2029 194.577 66.7075C194.693 66.2121 194.993 65.7794 195.417 65.4974L202.417 61.4674ZM201.382 48.2724C201.873 48.4271 202.287 48.7658 202.535 49.2178C202.783 49.6698 202.847 50.2002 202.713 50.6982C202.58 51.1963 202.259 51.6235 201.818 51.8907C201.377 52.158 200.85 52.2445 200.347 52.1324L192.602 50.0324C192.126 49.8681 191.73 49.5306 191.492 49.0873C191.255 48.6441 191.193 48.1275 191.319 47.6405C191.445 47.1536 191.75 46.7321 192.173 46.46C192.596 46.1879 193.106 46.0852 193.602 46.1724L201.367 48.2724H201.382ZM232.102 48.9374C231.646 49.1641 231.121 49.2088 230.634 49.0623C230.147 48.9159 229.734 48.5893 229.479 48.149C229.224 47.7087 229.147 47.1879 229.262 46.6925C229.378 46.1971 229.678 45.7644 230.102 45.4824L237.102 41.4524C237.557 41.2256 238.082 41.181 238.569 41.3274C239.056 41.4739 239.469 41.8005 239.724 42.2408C239.979 42.681 240.056 43.2019 239.941 43.6973C239.825 44.1927 239.525 44.6254 239.102 44.9074L232.102 48.9374ZM222.832 38.6374C222.779 38.9068 222.672 39.1626 222.517 39.3889C222.362 39.6151 222.162 39.807 221.929 39.9526C221.696 40.0982 221.436 40.1944 221.165 40.2352C220.894 40.2759 220.617 40.2604 220.352 40.1896C220.087 40.1187 219.839 39.9941 219.624 39.8234C219.409 39.6527 219.232 39.4397 219.103 39.1975C218.974 38.9553 218.896 38.6891 218.874 38.4155C218.853 38.142 218.887 37.8669 218.977 37.6074L221.037 29.8524C221.201 29.377 221.538 28.9809 221.982 28.7432C222.425 28.5055 222.941 28.4435 223.428 28.5697C223.915 28.6958 224.337 29.0008 224.609 29.4239C224.881 29.8469 224.984 30.357 224.897 30.8524L222.832 38.6374ZM232.917 86.8174L237.752 83.8874C236.062 81.0774 233.327 77.1124 231.997 74.3024C231.971 74.2442 231.951 74.184 231.937 74.1224C231.866 73.8121 231.922 73.4866 232.092 73.2175C232.262 72.9484 232.531 72.7577 232.842 72.6874C235.532 72.0724 238.282 71.4924 240.952 70.8224C241.26 70.7536 241.561 70.6565 241.852 70.5324C242.083 70.4314 242.302 70.3021 242.502 70.1474C242.57 70.0892 242.633 70.0257 242.692 69.9574C242.721 69.9212 242.745 69.8808 242.762 69.8374L242.732 69.7474C242.673 69.6478 242.599 69.5583 242.512 69.4824C242.383 69.365 242.244 69.2596 242.097 69.1674L214.632 51.2274C215.687 61.9074 217.232 73.2774 217.857 83.8824C217.873 84.0512 217.903 84.2184 217.947 84.3824C217.978 84.4904 218.021 84.5945 218.077 84.6924L218.142 84.7624C218.19 84.7694 218.238 84.7694 218.287 84.7624C218.374 84.7424 218.459 84.7139 218.542 84.6774C218.771 84.5745 218.987 84.4417 219.182 84.2824C219.425 84.0801 219.651 83.8577 219.857 83.6174C220.822 82.4824 224.657 77.5474 225.557 77.0274C225.829 76.8655 226.154 76.8178 226.461 76.8946C226.768 76.9714 227.033 77.1665 227.197 77.4374L232.917 86.8124V86.8174Z" fill="white"/>
</svg>
